<mxfile host="app.diagrams.net" modified="2023-06-04T20:44:13.480Z" agent="Mozilla/5.0 (Windows NT 10.0; Win64; x64) AppleWebKit/537.36 (KHTML, like Gecko) Chrome/113.0.0.0 Safari/537.36 Edg/113.0.1774.57" etag="9ajJ4ttX_UxW0HXsVaFp" version="21.3.6" type="github">
  <diagram name="PÃ¡gina-1" id="vakUwdqn0LjCnmI12lmv">
    <mxGraphModel dx="825" dy="444" grid="0" gridSize="10" guides="1" tooltips="1" connect="1" arrows="1" fold="1" page="1" pageScale="1" pageWidth="827" pageHeight="1169" math="0" shadow="0">
      <root>
        <mxCell id="0" />
        <mxCell id="1" parent="0" />
      </root>
    </mxGraphModel>
  </diagram>
</mxfile>
